<?xml version="1.0" encoding="iso-8859-1"?>
<!-- Generator: Adobe Illustrator 19.0.0, SVG Export Plug-In . SVG Version: 6.00 Build 0)  -->
<svg version="1.1" id="Layer_1" xmlns="http://www.w3.org/2000/svg" xmlns:xlink="http://www.w3.org/1999/xlink" x="0px" y="0px"
	 viewBox="0 0 510.847 510.847" style="enable-background:new 0 0 510.847 510.847;" xml:space="preserve">
<g transform="translate(1 1)">
	<g>
		<path style="fill:#FFDD09;" d="M228.141,149.506c-2.518,0-5.036-0.839-6.715-3.357c-2.518-3.357-1.679-9.233,1.679-11.751
			c1.679-0.839,3.357-2.518,5.036-4.197c2.518-3.357,7.554-4.197,10.911-1.679c2.518,1.679,5.036,3.357,6.715,5.036
			c3.357,2.518,5.036,7.554,1.679,11.751c-2.518,3.357-7.554,5.036-11.751,1.679l-0.839-0.839c-0.839,0.839-1.679,0.839-2.518,1.679
			C231.498,148.666,229.82,149.506,228.141,149.506"/>
		<path style="fill:#FFDD09;" d="M197.925,153.702c-0.839,0-1.679,0-2.518-0.839c-5.036-1.679-10.072-4.197-13.43-7.554
			c-3.357-3.357-4.197-8.393-0.839-11.751c3.357-3.357,8.393-4.197,11.751-0.839c2.518,2.518,5.036,3.357,8.393,5.036
			c4.197,1.679,6.715,6.715,5.036,10.911C204.639,151.184,201.282,153.702,197.925,153.702"/>
		<path style="fill:#FFDD09;" d="M175.262,118.45h-0.839c-4.197-0.839-7.554-5.036-7.554-9.233c0-0.839,0-1.679,0-2.518
			c0,0-0.839,0-0.839-0.839c-4.197-1.679-6.715-6.715-4.197-10.911c1.679-4.197,6.715-6.715,10.911-4.197
			c2.518,0.839,5.036,2.518,7.554,3.357c4.197,1.679,5.875,6.715,4.197,10.072c-0.839,2.518-0.839,4.197-1.679,5.875
			C183.656,115.092,179.459,118.45,175.262,118.45"/>
		<path style="fill:#FFDD09;" d="M111.472,95.787c-4.197,0-7.554-3.357-8.393-7.554c-0.839-4.197,2.518-9.233,6.715-9.233
			c5.875-0.839,12.59-0.839,19.305,0c4.197,0.839,7.554,5.036,7.554,9.233c-0.839,4.197-5.036,8.393-9.233,7.554
			c-5.875-0.839-10.911-0.839-15.108,0C112.311,95.787,111.472,95.787,111.472,95.787 M81.256,140.273
			c-4.197,0-7.554-3.357-8.393-7.554c0-2.518,0-5.036,0-7.554c0-4.197,0-8.393,0.839-11.751c0.839-4.197,5.036-7.554,10.072-6.715
			c4.197,0.839,7.554,5.036,6.715,10.072c-0.839,2.518-0.839,5.875-0.839,9.233c0,1.679,0,4.197,0,5.875
			C90.489,136.076,87.131,139.433,81.256,140.273C82.095,140.273,82.095,140.273,81.256,140.273 M288.574,185.597
			c-1.679,0-4.197-0.839-5.875-1.679c-4.197-3.357-8.393-7.554-12.59-10.911c-3.357-3.357-4.197-8.393-0.839-11.751
			s8.393-4.197,11.751-0.839c4.197,3.357,9.233,7.554,13.429,10.911c3.357,3.357,4.197,8.393,0.839,11.751
			C293.61,184.758,291.092,185.597,288.574,185.597 M99.721,197.348c-3.357,0-5.875-1.679-7.554-5.036
			c-2.518-5.875-5.036-10.911-7.554-15.948c-1.679-4.197,0-9.233,4.197-10.911c4.197-1.679,9.233,0,10.911,4.197
			c1.679,5.036,4.197,10.072,6.715,15.108c1.679,4.197,0,9.233-4.197,10.911C102.239,197.348,100.561,197.348,99.721,197.348
			 M332.22,227.565c-2.518,0-4.197-0.839-5.875-2.518c-3.357-3.357-5.875-6.715-9.233-9.233l-2.518-3.357
			c-3.357-3.357-3.357-8.393,0-11.751s8.393-3.357,11.751,0l2.518,2.518c3.357,3.357,6.715,6.715,10.072,10.072
			c3.357,3.357,3.357,8.393,0,11.751C336.416,226.725,334.738,227.565,332.22,227.565 M130.777,249.387
			c-2.518,0-5.036-1.679-6.715-3.357c-3.357-5.036-6.715-10.072-10.072-14.269c-2.518-4.197-1.679-9.233,2.518-11.751
			c4.197-2.518,9.233-1.679,11.751,2.518c3.357,5.036,5.875,9.233,9.233,14.269c2.518,4.197,1.679,9.233-2.518,11.751
			C134.134,248.548,132.456,249.387,130.777,249.387 M372.508,272.889c-2.518,0-5.036-0.839-6.715-3.357
			c-3.357-4.197-6.715-8.393-10.911-13.43c-3.357-3.357-2.518-9.233,0.839-11.751c3.357-3.357,9.233-2.518,11.751,0.839
			c4.197,4.197,7.554,9.233,10.911,13.43c2.518,3.357,2.518,9.233-1.679,11.751C375.866,272.05,374.187,272.889,372.508,272.889
			 M167.708,297.23c-2.518,0-5.036-0.839-6.715-3.357c-4.197-4.197-7.554-9.233-10.911-13.43c-2.518-3.357-2.518-9.233,0.839-11.751
			c3.357-2.518,9.233-2.518,11.751,0.839c3.357,4.197,7.554,8.393,10.911,13.43c3.357,3.357,2.518,9.233-0.839,11.751
			C171.066,296.391,169.387,297.23,167.708,297.23 M406.921,321.571c-2.518,0-5.875-1.679-6.715-4.197
			c-3.357-5.036-5.875-9.233-9.233-14.269c-2.518-4.197-1.679-9.233,2.518-11.751c4.197-2.518,9.233-1.679,11.751,2.518
			c3.357,5.036,6.715,10.072,9.233,14.269c2.518,4.197,1.679,9.233-2.518,11.751C410.279,321.571,408.6,321.571,406.921,321.571
			 M208.836,340.876c-2.518,0-4.197-0.839-5.875-2.518l-4.197-4.197c-2.518-2.518-5.036-5.036-7.554-7.554
			c-3.357-3.357-3.357-8.393,0-11.751s8.393-3.357,11.751,0c2.518,2.518,5.036,5.036,7.554,7.554l4.197,4.197
			c3.357,3.357,3.357,8.393,0,11.751C213.033,340.037,210.515,340.876,208.836,340.876 M435.459,375.289
			c-3.357,0-6.715-1.679-7.554-5.036c-1.679-5.036-4.197-10.072-6.715-15.108c-1.679-4.197,0-9.233,4.197-10.911
			c4.197-1.679,9.233,0,10.911,4.197c2.518,5.875,5.036,10.911,6.715,15.948c1.679,4.197,0,9.233-5.036,10.911
			C437.138,374.45,436.298,375.289,435.459,375.289 M253.321,381.164c-1.679,0-3.357-0.839-5.036-1.679
			c-4.197-3.357-9.233-7.554-13.43-10.911c-3.357-3.357-4.197-8.393-0.839-11.751c3.357-3.357,8.393-4.197,11.751-0.839
			c4.197,3.357,8.393,7.554,12.59,10.911c3.357,2.518,4.197,8.393,0.839,11.751C258.357,380.325,255.839,381.164,253.321,381.164
			 M302.003,417.256c-1.679,0-3.357-0.839-4.197-1.679c-5.036-3.357-9.233-6.715-14.269-10.072
			c-4.197-2.518-5.036-7.554-1.679-11.751c2.518-4.197,7.554-5.036,11.751-1.679c5.036,3.357,9.233,6.715,14.269,9.233
			c4.197,2.518,5.036,7.554,2.518,11.751C307.039,415.578,304.521,417.256,302.003,417.256 M443.852,434.043
			c-0.839,0-1.679,0-1.679,0c-4.197-0.839-7.554-5.875-5.875-10.072c0.839-3.357,1.679-6.715,1.679-10.911c0-0.839,0-2.518,0-3.357
			c0-5.036,3.357-8.393,7.554-9.233c4.197,0,8.393,3.357,9.233,7.554c0,1.679,0,2.518,0,4.197c0,5.875-0.839,10.911-1.679,15.108
			C451.407,431.525,448.049,434.043,443.852,434.043 M354.882,445.794c-0.839,0-2.518,0-3.357-0.839
			c-5.036-2.518-10.911-5.036-15.948-7.554c-4.197-1.679-5.875-7.554-3.357-10.911c2.518-3.357,7.554-5.875,10.911-3.357
			c5.036,2.518,10.072,5.036,15.108,6.715c4.197,1.679,5.875,6.715,4.197,10.911C360.757,444.115,357.4,445.794,354.882,445.794
			 M406.921,459.224c-4.197,0-8.393,0-12.59-0.839c-4.197-0.839-7.554-5.036-7.554-9.233c0.839-4.197,5.036-7.554,9.233-7.554
			c5.875,0.839,10.911,0.839,15.108,0.839c4.197,0,8.393,2.518,9.233,7.554c0.839,4.197-2.518,8.393-7.554,9.233
			C411.118,459.224,409.439,459.224,406.921,459.224"/>
		<path style="fill:#FFDD09;" d="M72.862,327.446l-9.233-4.197c-2.518-0.839-5.036-2.518-7.554-3.357
			c-4.197-1.679-5.875-6.715-4.197-10.911c1.679-4.197,6.715-5.875,10.072-4.197l0,0c1.679-4.197,7.554-5.875,10.911-3.357
			c4.197,1.679,5.875,6.715,3.357,10.911c-0.839,1.679-1.679,4.197-2.518,5.875L72.862,327.446z"/>
		<path style="fill:#FFDD09;" d="M116.508,303.105c-1.679,0-3.357,0-4.197-0.839c-3.357-1.679-6.715-3.357-10.911-3.357
			c-5.036,0-8.393-4.197-7.554-9.233c0-5.036,4.197-8.393,9.233-7.554c6.715,0.839,12.59,2.518,18.466,5.875
			c4.197,2.518,5.036,7.554,2.518,11.751C122.384,301.427,119.866,303.105,116.508,303.105"/>
		<path style="fill:#FFDD09;" d="M139.17,345.912c-0.839,0-0.839,0-1.679,0c-2.518-0.839-5.875-0.839-8.393-1.679l-10.072-1.679
			l3.357-9.233c0.839-1.679,1.679-4.197,1.679-5.875c0.839-4.197,5.036-7.554,9.233-7.554c4.197,0.839,7.554,5.036,7.554,9.233
			c0,0,0,0,0,0.839c4.197,0.839,6.715,5.036,5.875,10.072C146.725,343.394,143.367,345.912,139.17,345.912"/>
		<path style="fill:#FFDD09;" d="M209.675,191.473c-4.197,0-8.393-3.357-8.393-7.554c0-5.036,3.357-8.393,7.554-9.233
			c5.875-0.839,11.751-0.839,17.626-0.839c5.036-0.839,8.393,3.357,9.233,7.554c0,4.197-3.357,8.393-7.554,9.233
			C221.426,190.633,216.39,190.633,209.675,191.473C210.515,191.473,209.675,191.473,209.675,191.473 M343.131,190.633h-0.839
			c-5.875-0.839-10.911-1.679-16.787-1.679c-4.197-0.839-8.393-4.197-7.554-9.233c0.839-4.197,4.197-8.393,9.233-7.554
			c5.875,0.839,11.751,0.839,17.626,1.679c4.197,0.839,7.554,5.036,7.554,9.233C351.525,188.115,347.328,190.633,343.131,190.633
			 M150.082,199.027c-4.197,0-7.554-2.518-8.393-6.715c-0.839-4.197,2.518-9.233,6.715-10.072
			c5.875-0.839,11.751-1.679,17.626-3.357c4.197-0.839,9.233,2.518,9.233,6.715c0,4.197-2.518,9.233-6.715,9.233
			c-5.875,0.839-10.911,1.679-16.787,2.518C150.921,199.027,150.921,199.027,150.082,199.027 M399.367,204.063
			c-0.839,0-1.679,0-1.679,0c-5.036-1.679-10.911-2.518-16.787-3.357c-4.197-0.839-7.554-5.036-6.715-10.072
			c0.839-4.197,5.036-7.554,10.072-6.715c5.875,0.839,11.751,2.518,16.787,4.197c4.197,0.839,7.554,5.875,5.875,10.072
			C406.921,201.545,403.564,204.063,399.367,204.063 M85.452,214.135c-3.357,0-6.715-2.518-7.554-5.875
			c-1.679-4.197,0.839-9.233,5.036-10.911c5.036-1.679,10.911-3.357,16.787-5.036c4.197-1.679,9.233,0.839,10.072,5.875
			c1.679,4.197-0.839,9.233-5.875,10.072c-5.875,1.679-10.911,3.357-15.948,5.036C87.131,214.135,86.292,214.135,85.452,214.135
			 M456.443,223.368c-0.839,0-2.518,0-3.357-0.839c-5.036-2.518-10.072-4.197-15.108-6.715c-4.197-1.679-6.715-6.715-5.036-10.911
			c1.679-4.197,6.715-6.715,10.911-5.036c5.875,2.518,10.911,4.197,16.787,6.715c4.197,1.679,5.875,6.715,4.197,10.911
			C462.318,221.689,459.8,223.368,456.443,223.368 M32.574,242.673c-2.518,0-5.036-0.839-5.875-2.518
			c-3.357-3.357-2.518-8.393,0.839-11.751c4.197-4.197,9.233-7.554,15.108-10.911c4.197-2.518,9.233-0.839,11.751,2.518
			c2.518,4.197,0.839,9.233-2.518,11.751c-5.036,3.357-9.233,5.875-12.59,9.233C35.931,241.833,34.252,242.673,32.574,242.673
			 M500.928,262.817c-3.357,0-6.715-2.518-7.554-5.875c-1.679-4.197-4.197-7.554-7.554-11.751
			c-3.357-3.357-2.518-8.393,0.839-11.751c3.357-3.357,8.393-2.518,11.751,0.839c5.036,5.875,8.393,10.911,10.911,17.626
			c1.679,4.197-0.839,9.233-5.036,10.911C502.607,261.978,501.767,262.817,500.928,262.817 M24.18,295.551
			c-2.518,0-5.036-0.839-6.715-3.357c-5.036-5.875-7.554-11.751-9.233-18.466c-0.839-4.197,1.679-9.233,5.875-10.072
			s9.233,1.679,10.072,5.875c0.839,4.197,3.357,7.554,5.875,11.751c2.518,3.357,2.518,9.233-1.679,11.751
			C28.377,294.712,26.698,295.551,24.18,295.551 M474.908,311.499c-2.518,0-5.036-1.679-6.715-3.357
			c-2.518-4.197-1.679-9.233,2.518-11.751c5.036-3.357,9.233-6.715,12.59-10.072s8.393-3.357,11.751,0s3.357,8.393,0,11.751
			c-4.197,4.197-9.233,7.554-14.269,11.751C478.266,311.499,476.587,311.499,474.908,311.499 M361.597,349.269
			c-4.197,0-7.554-2.518-8.393-6.715c-0.839-4.197,2.518-9.233,6.715-9.233c5.875-0.839,10.911-1.679,16.787-3.357
			c4.197-0.839,9.233,1.679,10.072,6.715c0.839,4.197-1.679,9.233-6.715,10.072c-5.875,0.839-11.751,2.518-17.626,3.357
			C362.436,349.269,362.436,349.269,361.597,349.269 M192.049,365.217L192.049,365.217c-6.715-0.839-12.59-0.839-18.466-1.679
			c-4.197-0.839-7.554-5.036-7.554-9.233c0.839-4.197,5.036-7.554,9.233-7.554c5.875,0.839,10.911,0.839,16.787,1.679
			c4.197,0,8.393,4.197,7.554,9.233C200.443,361.86,197.085,365.217,192.049,365.217 M284.377,358.502
			c-4.197,0-8.393-3.357-8.393-7.554c0-5.036,3.357-8.393,7.554-9.233c5.875,0,11.751-0.839,16.787-0.839
			c5.036-0.839,8.393,3.357,9.233,7.554c0,5.036-3.357,8.393-7.554,9.233C296.967,357.663,291.092,357.663,284.377,358.502
			L284.377,358.502"/>
	</g>
	<path style="fill:#1CD759;" d="M242.41,103.342c0,18.466-15.108,33.574-33.574,33.574s-33.574-15.108-33.574-33.574
		s15.108-33.574,33.574-33.574S242.41,84.876,242.41,103.342"/>
	<path style="fill:#54C9FD;" d="M133.295,313.178c0,18.466-15.108,33.574-33.574,33.574s-33.574-15.108-33.574-33.574
		c0-18.466,15.108-33.574,33.574-33.574S133.295,294.712,133.295,313.178"/>
	<path style="fill:#FFDD09;" d="M309.557,246.03c0,23.502-18.466,41.967-41.967,41.967s-41.967-18.466-41.967-41.967
		s18.466-41.967,41.967-41.967S309.557,222.528,309.557,246.03"/>
	<path d="M267.59,296.391c-27.698,0-50.361-22.662-50.361-50.361s22.662-50.361,50.361-50.361s50.361,22.662,50.361,50.361
		S295.289,296.391,267.59,296.391z M267.59,212.456c-18.466,0-33.574,15.108-33.574,33.574s15.108,33.574,33.574,33.574
		s33.574-15.108,33.574-33.574S286.056,212.456,267.59,212.456z"/>
	<path d="M99.721,355.145c-23.502,0-41.967-18.466-41.967-41.967c0-23.502,18.466-41.967,41.967-41.967s41.967,18.466,41.967,41.967
		C141.689,336.679,123.223,355.145,99.721,355.145z M99.721,287.997c-14.269,0-25.18,10.911-25.18,25.18
		c0,14.269,10.911,25.18,25.18,25.18s25.18-10.911,25.18-25.18C124.902,298.909,113.99,287.997,99.721,287.997z"/>
	<path d="M208.836,145.309c-23.502,0-41.967-18.466-41.967-41.967s18.466-41.967,41.967-41.967s41.967,18.466,41.967,41.967
		S232.338,145.309,208.836,145.309z M208.836,78.161c-14.269,0-25.18,10.911-25.18,25.18s10.911,25.18,25.18,25.18
		s25.18-10.911,25.18-25.18S223.105,78.161,208.836,78.161z"/>
	<path d="M228.141,139.433c-2.518,0-5.036-0.839-6.715-3.357c-2.518-3.357-1.679-9.233,1.679-11.751
		c1.679-0.839,3.357-2.518,5.036-4.197c2.518-3.357,7.554-4.197,10.911-1.679c2.518,1.679,5.036,3.357,6.715,5.036
		c3.357,2.518,5.036,7.554,1.679,11.751c-2.518,3.357-7.554,5.036-11.751,1.679l-0.839-0.839c-0.839,0.839-1.679,0.839-2.518,1.679
		C231.498,138.594,229.82,139.433,228.141,139.433"/>
	<path d="M197.925,143.63c-0.839,0-1.679,0-2.518-0.839c-5.036-1.679-10.072-4.197-13.43-7.554
		c-3.357-3.357-4.197-8.393-0.839-11.751c3.357-3.357,8.393-4.197,11.751-0.839c2.518,2.518,5.036,3.357,8.393,5.036
		c4.197,1.679,6.715,6.715,5.036,10.911C204.639,141.112,201.282,143.63,197.925,143.63"/>
	<path d="M175.262,108.378h-0.839c-4.197-0.839-7.554-5.036-7.554-9.233c0-0.839,0-1.679,0-2.518c0,0-0.839,0-0.839-0.839
		c-4.197-1.679-6.715-6.715-4.197-10.911c1.679-4.197,6.715-6.715,10.911-4.197c2.518,0.839,5.036,2.518,7.554,3.357
		c4.197,1.679,5.875,6.715,4.197,10.072c-0.839,2.518-0.839,4.197-1.679,5.875C183.656,105.02,179.459,108.378,175.262,108.378"/>
	<path d="M111.472,85.715c-4.197,0-7.554-3.357-8.393-7.554s2.518-9.233,6.715-9.233c5.875-0.839,12.59-0.839,19.305,0
		c4.197,0.839,7.554,5.036,7.554,9.233c-0.839,4.197-5.036,8.393-9.233,7.554c-5.875-0.839-10.911-0.839-15.108,0
		C112.311,85.715,111.472,85.715,111.472,85.715 M81.256,130.201c-4.197,0-7.554-3.357-8.393-7.554c0-2.518,0-5.036,0-7.554
		c0-4.197,0-8.393,0.839-11.751c0.839-4.197,5.036-7.554,10.072-6.715c4.197,0.839,7.554,5.036,6.715,10.072
		c-0.839,2.518-0.839,5.875-0.839,9.233c0,1.679,0,4.197,0,5.875C90.489,126.004,87.131,129.361,81.256,130.201
		C82.095,130.201,82.095,130.201,81.256,130.201 M288.574,175.525c-1.679,0-4.197-0.839-5.875-1.679
		c-4.197-4.197-8.393-7.554-12.59-10.911c-3.357-3.357-4.197-8.393-0.839-11.751s8.393-4.197,11.751-0.839
		c4.197,3.357,9.233,7.554,13.429,10.911c3.357,3.357,4.197,8.393,0.839,11.751C293.61,174.686,291.092,175.525,288.574,175.525
		 M99.721,187.276c-3.357,0-5.875-1.679-7.554-5.036c-2.518-5.875-5.036-10.911-7.554-15.948c-1.679-4.197,0-9.233,4.197-10.911
		c4.197-1.679,9.233,0,10.911,4.197c1.679,5.036,4.197,10.072,6.715,15.108c1.679,4.197,0,9.233-4.197,10.911
		C102.239,187.276,100.561,187.276,99.721,187.276 M332.22,217.492c-2.518,0-4.197-0.839-5.875-2.518
		c-3.357-3.357-5.875-6.715-9.233-9.233l-2.518-2.518c-3.357-3.357-3.357-8.393,0-11.751s8.393-3.357,11.751,0l2.518,2.518
		c3.357,3.357,6.715,6.715,10.072,10.072c3.357,3.357,3.357,8.393,0,11.751C336.416,216.653,334.738,217.492,332.22,217.492
		 M130.777,239.315c-2.518,0-5.036-1.679-6.715-3.357c-3.357-5.036-6.715-10.072-10.072-14.269
		c-2.518-4.197-1.679-9.233,2.518-11.751c4.197-2.518,9.233-1.679,11.751,2.518c3.357,5.036,5.875,9.233,9.233,14.269
		c2.518,4.197,1.679,9.233-2.518,11.751C134.134,238.476,132.456,239.315,130.777,239.315 M372.508,262.817
		c-2.518,0-5.036-0.839-6.715-3.357c-3.357-4.197-6.715-8.393-10.911-13.43c-3.357-3.357-2.518-9.233,0.839-11.751
		c3.357-3.357,9.233-2.518,11.751,0.839c4.197,4.197,7.554,9.233,10.911,13.43c2.518,3.357,2.518,9.233-1.679,11.751
		C375.866,261.978,374.187,262.817,372.508,262.817 M167.708,287.158c-2.518,0-5.036-0.839-6.715-3.357
		c-4.197-4.197-7.554-9.233-10.911-13.43c-2.518-3.357-2.518-9.233,0.839-11.751c3.357-2.518,9.233-2.518,11.751,0.839
		c3.357,4.197,7.554,8.393,10.911,13.43c3.357,3.357,2.518,9.233-0.839,11.751C171.066,286.319,169.387,287.158,167.708,287.158
		 M406.921,311.499c-2.518,0-5.875-1.679-6.715-4.197c-3.357-5.036-5.875-9.233-9.233-14.269c-2.518-4.197-1.679-9.233,2.518-11.751
		s9.233-1.679,11.751,2.518c3.357,5.036,6.715,10.072,9.233,14.269c2.518,4.197,1.679,9.233-2.518,11.751
		C410.279,311.499,408.6,311.499,406.921,311.499 M208.836,330.804c-2.518,0-4.197-0.839-5.875-2.518l-4.197-4.197
		c-2.518-2.518-5.036-5.036-7.554-7.554c-3.357-3.357-3.357-8.393,0-11.751s8.393-3.357,11.751,0
		c2.518,2.518,5.036,5.036,7.554,7.554l4.197,4.197c3.357,3.357,3.357,8.393,0,11.751
		C213.033,329.965,210.515,330.804,208.836,330.804 M435.459,365.217c-3.357,0-6.715-1.679-7.554-5.036
		c-1.679-5.036-4.197-10.072-6.715-15.108c-1.679-4.197,0-9.233,4.197-10.911c4.197-1.679,9.233,0,10.911,4.197
		c2.518,5.875,5.036,10.911,6.715,15.948c1.679,4.197,0,9.233-5.036,10.911C437.138,364.378,436.298,365.217,435.459,365.217
		 M253.321,371.092c-1.679,0-3.357-0.839-5.036-1.679c-4.197-3.357-9.233-7.554-13.43-10.911c-3.357-3.357-4.197-8.393-0.839-11.751
		c3.357-3.357,8.393-4.197,11.751-0.839c4.197,3.357,8.393,7.554,12.59,10.911c3.357,2.518,4.197,8.393,0.839,11.751
		C258.357,370.253,255.839,371.092,253.321,371.092 M302.003,407.184c-1.679,0-3.357-0.839-4.197-1.679
		c-5.036-3.357-9.233-6.715-14.269-10.072c-4.197-2.518-5.036-7.554-1.679-11.751c2.518-4.197,7.554-5.036,11.751-1.679
		c5.036,3.357,9.233,6.715,14.269,9.233c4.197,2.518,5.036,7.554,2.518,11.751C307.039,405.505,304.521,407.184,302.003,407.184
		 M443.852,423.971c-0.839,0-1.679,0-1.679,0c-4.197-0.839-7.554-5.875-5.875-10.072c0.839-3.357,1.679-6.715,1.679-10.911
		c0-0.839,0-2.518,0-3.357c0-5.036,3.357-8.393,7.554-9.233c4.197,0,8.393,3.357,9.233,7.554c0,1.679,0,2.518,0,4.197
		c0,5.875-0.839,10.911-1.679,15.108C451.407,421.453,448.049,423.971,443.852,423.971 M354.882,435.722
		c-0.839,0-2.518,0-3.357-0.839c-5.036-2.518-10.911-5.036-15.948-7.554c-4.197-1.679-5.875-7.554-3.357-10.911
		c2.518-3.357,7.554-5.875,10.911-3.357c5.036,2.518,10.072,5.036,15.108,6.715c4.197,1.679,5.875,6.715,4.197,10.911
		C360.757,434.043,357.4,435.722,354.882,435.722 M406.921,449.151c-4.197,0-8.393,0-12.59-0.839s-7.554-5.036-7.554-9.233
		c0.839-4.197,5.036-7.554,9.233-7.554c5.875,0.839,10.911,0.839,15.108,0.839c4.197,0,8.393,2.518,9.233,7.554
		c0.839,4.197-2.518,8.393-7.554,9.233C411.118,449.151,409.439,449.151,406.921,449.151"/>
	<path d="M72.862,317.374l-9.233-4.197c-2.518-0.839-5.036-2.518-7.554-3.357c-4.197-1.679-5.875-6.715-4.197-10.911
		c1.679-4.197,6.715-5.875,10.072-4.197l0,0c1.679-4.197,7.554-5.875,10.911-3.357c4.197,1.679,5.875,6.715,3.357,10.911
		c-0.839,1.679-1.679,4.197-2.518,5.875L72.862,317.374z"/>
	<path d="M116.508,293.033c-1.679,0-3.357,0-4.197-0.839c-3.357-1.679-6.715-3.357-10.911-3.357c-5.036,0-8.393-4.197-7.554-9.233
		c0-5.036,4.197-8.393,9.233-7.554c6.715,0.839,12.59,2.518,18.466,5.875c4.197,2.518,5.036,7.554,2.518,11.751
		C122.384,291.355,119.866,293.033,116.508,293.033"/>
	<path d="M139.17,335.84c-0.839,0-0.839,0-1.679,0c-2.518-0.839-5.875-0.839-8.393-1.679l-10.072-1.679l3.357-9.233
		c0.839-1.679,1.679-4.197,1.679-5.875c0.839-4.197,5.036-7.554,9.233-7.554c4.197,0.839,7.554,5.036,7.554,9.233c0,0,0,0,0,0.839
		c4.197,0.839,6.715,5.036,5.875,10.072C146.725,333.322,143.367,335.84,139.17,335.84"/>
	<path d="M209.675,181.401c-4.197,0-8.393-3.357-8.393-7.554c0-4.197,3.357-8.393,7.554-9.233
		c5.875-0.839,11.751-0.839,17.626-0.839c5.036-0.839,8.393,3.357,9.233,7.554c0,5.036-3.357,8.393-7.554,9.233
		C221.426,180.561,216.39,180.561,209.675,181.401C210.515,181.401,209.675,181.401,209.675,181.401 M343.131,180.561h-0.839
		c-5.875-0.839-10.911-1.679-16.787-1.679c-4.197-0.839-8.393-4.197-7.554-9.233c0.839-4.197,4.197-8.393,9.233-7.554
		c5.875,0.839,11.751,0.839,17.626,1.679c4.197,0.839,7.554,5.036,7.554,9.233C351.525,177.204,347.328,180.561,343.131,180.561
		 M150.082,188.955c-4.197,0-7.554-2.518-8.393-6.715c-0.839-4.197,2.518-9.233,6.715-10.072c5.875-0.839,11.751-1.679,17.626-2.518
		c4.197-0.839,9.233,2.518,9.233,6.715c0.839,4.197-2.518,9.233-6.715,9.233c-5.875,0.839-10.911,1.679-16.787,2.518
		C150.921,188.955,150.921,188.955,150.082,188.955 M399.367,193.991c-0.839,0-1.679,0-1.679,0
		c-5.036-1.679-10.911-2.518-16.787-3.357c-4.197-0.839-7.554-5.036-6.715-10.072c0.839-4.197,5.036-7.554,10.072-6.715
		c5.875,0.839,11.751,2.518,16.787,4.197c4.197,0.839,7.554,5.875,5.875,10.072C406.921,191.473,403.564,193.991,399.367,193.991
		 M85.452,204.063c-3.357,0-6.715-2.518-7.554-5.875c-1.679-4.197,0.839-9.233,5.036-10.911c5.036-1.679,10.911-3.357,16.787-5.036
		c4.197-1.679,9.233,0.839,10.072,5.875c1.679,4.197-0.839,9.233-5.875,10.072c-5.875,1.679-10.911,3.357-15.948,5.036
		C87.131,204.063,86.292,204.063,85.452,204.063 M456.443,213.296c-0.839,0-2.518,0-3.357-0.839
		c-5.036-2.518-10.072-4.197-15.108-6.715c-4.197-1.679-6.715-6.715-5.036-10.911c1.679-4.197,6.715-6.715,10.911-5.036
		c5.875,2.518,10.911,4.197,16.787,6.715c4.197,1.679,5.875,6.715,4.197,10.911C462.318,211.617,459.8,213.296,456.443,213.296
		 M32.574,232.601c-2.518,0-5.036-0.839-5.875-2.518c-3.357-3.357-2.518-8.393,0.839-11.751c4.197-4.197,9.233-7.554,15.108-10.911
		c4.197-2.518,9.233-0.839,11.751,2.518c2.518,4.197,0.839,9.233-2.518,11.751c-5.036,3.357-9.233,5.875-12.59,9.233
		C35.931,231.761,34.252,232.601,32.574,232.601 M500.928,252.745c-3.357,0-6.715-2.518-7.554-5.875
		c-1.679-4.197-4.197-7.554-7.554-11.751c-3.357-3.357-2.518-8.393,0.839-11.751c3.357-3.357,8.393-2.518,11.751,0.839
		c5.036,5.875,8.393,10.911,10.911,17.626c1.679,4.197-0.839,9.233-5.036,10.911C502.607,251.906,501.767,252.745,500.928,252.745
		 M24.18,285.479c-2.518,0-5.036-0.839-6.715-3.357c-5.036-5.875-7.554-11.751-9.233-18.466c-0.839-4.197,1.679-9.233,6.715-10.072
		c4.197-0.839,9.233,1.679,10.072,5.875c0.839,4.197,3.357,7.554,5.875,11.751c2.518,3.357,2.518,9.233-1.679,11.751
		C28.377,284.64,26.698,285.479,24.18,285.479 M474.908,301.427c-2.518,0-5.036-1.679-6.715-3.357
		c-2.518-4.197-1.679-9.233,2.518-11.751c5.036-3.357,9.233-6.715,12.59-10.072c3.357-3.357,8.393-3.357,11.751,0
		c3.357,3.357,3.357,8.393,0,11.751c-4.197,4.197-9.233,7.554-14.269,11.751C478.266,301.427,476.587,301.427,474.908,301.427
		 M361.597,339.197c-4.197,0-7.554-3.357-8.393-6.715c-0.839-4.197,2.518-9.233,6.715-9.233c5.875-0.839,10.911-1.679,16.787-3.357
		c4.197-0.839,9.233,1.679,10.072,6.715c0.839,4.197-1.679,9.233-6.715,10.072c-5.875,0.839-11.751,2.518-17.626,3.357
		C362.436,339.197,362.436,339.197,361.597,339.197 M192.049,355.145L192.049,355.145c-6.715-0.839-12.59-0.839-18.466-1.679
		c-4.197-0.839-7.554-5.036-7.554-9.233c0.839-4.197,5.036-7.554,9.233-7.554c5.875,0.839,10.911,0.839,16.787,1.679
		c4.197,0,8.393,4.197,7.554,9.233C200.443,351.787,197.085,355.145,192.049,355.145 M284.377,348.43
		c-4.197,0-8.393-3.357-8.393-7.554c0-5.036,3.357-8.393,7.554-9.233c5.875,0,11.751-0.839,16.787-0.839
		c5.036-0.839,8.393,3.357,9.233,7.554c0,5.036-3.357,8.393-7.554,9.233C296.967,347.591,291.092,347.591,284.377,348.43
		L284.377,348.43"/>
	<path d="M7.393,153.702c0,5.036,3.357,8.393,8.393,8.393s8.393-3.357,8.393-8.393s-3.357-8.393-8.393-8.393
		S7.393,148.666,7.393,153.702"/>
	<path d="M200.443,430.686c0,5.036,3.357,8.393,8.393,8.393c5.036,0,8.393-3.357,8.393-8.393s-3.357-8.393-8.393-8.393
		C203.8,422.292,200.443,425.65,200.443,430.686"/>
	<path d="M326.344,103.342c0,5.036,3.357,8.393,8.393,8.393c5.036,0,8.393-3.357,8.393-8.393c0-5.036-3.357-8.393-8.393-8.393
		C329.702,94.948,326.344,98.306,326.344,103.342"/>
	<path d="M452.246,89.912l-36.931-36.931l36.931-36.931l36.931,36.931L452.246,89.912z M438.816,52.981l13.43,13.43l13.43-13.43
		l-13.43-13.43L438.816,52.981z"/>
	<path d="M452.246,36.194c-5.036,0-8.393-3.357-8.393-8.393V11.014c0-5.036,3.357-8.393,8.393-8.393s8.393,3.357,8.393,8.393v16.787
		C460.639,32.837,457.282,36.194,452.246,36.194z"/>
	<path d="M427.066,61.374h-16.787c-5.036,0-8.393-3.357-8.393-8.393s3.357-8.393,8.393-8.393h16.787
		c5.036,0,8.393,3.357,8.393,8.393S432.102,61.374,427.066,61.374z"/>
	<path d="M452.246,103.342c-5.036,0-8.393-3.357-8.393-8.393V78.161c0-5.036,3.357-8.393,8.393-8.393s8.393,3.357,8.393,8.393
		v16.787C460.639,99.984,457.282,103.342,452.246,103.342z"/>
	<path d="M494.213,61.374h-16.787c-5.036,0-8.393-3.357-8.393-8.393s3.357-8.393,8.393-8.393h16.787
		c5.036,0,8.393,3.357,8.393,8.393S499.249,61.374,494.213,61.374z"/>
	<path d="M40.967,506.227c-5.036,0-8.393-3.357-8.393-8.393c0-14.269-10.911-25.18-25.18-25.18c-5.036,0-8.393-3.357-8.393-8.393
		c0-5.036,3.357-8.393,8.393-8.393c14.269,0,25.18-10.911,25.18-25.18c0-5.036,3.357-8.393,8.393-8.393s8.393,3.357,8.393,8.393
		c0,14.269,10.911,25.18,25.18,25.18c5.036,0,8.393,3.357,8.393,8.393c0,5.036-3.357,8.393-8.393,8.393
		c-14.269,0-25.18,10.911-25.18,25.18C49.361,502.869,46.003,506.227,40.967,506.227z M32.574,464.26
		c3.357,2.518,5.875,5.036,8.393,8.393c2.518-3.357,5.036-5.875,8.393-8.393c-3.357-2.518-5.875-5.036-8.393-8.393
		C38.449,459.224,35.931,461.742,32.574,464.26z"/>
</g>
<g>
</g>
<g>
</g>
<g>
</g>
<g>
</g>
<g>
</g>
<g>
</g>
<g>
</g>
<g>
</g>
<g>
</g>
<g>
</g>
<g>
</g>
<g>
</g>
<g>
</g>
<g>
</g>
<g>
</g>
</svg>
